<mxfile host="app.diagrams.net" agent="Mozilla/5.0 (Windows NT 10.0; Win64; x64) AppleWebKit/537.36 (KHTML, like Gecko) Chrome/129.0.0.0 Safari/537.36" version="24.8.0">
  <diagram name="Page-1" id="M6KO9Z2Sq3TtCJ41m3Gg">
    <mxGraphModel dx="152" dy="76" grid="1" gridSize="8" guides="1" tooltips="1" connect="1" arrows="1" fold="1" page="1" pageScale="1" pageWidth="827" pageHeight="1169" math="0" shadow="0">
      <root>
        <mxCell id="0" />
        <mxCell id="1" parent="0" />
        <mxCell id="WqMGtv1kcperBC2Bj5kJ-2" value="" style="endArrow=none;html=1;rounded=0;fillColor=#d5e8d4;strokeColor=#82b366;" edge="1" parent="1">
          <mxGeometry width="50" height="50" relative="1" as="geometry">
            <mxPoint x="400" y="220" as="sourcePoint" />
            <mxPoint x="448" y="128" as="targetPoint" />
          </mxGeometry>
        </mxCell>
        <mxCell id="WqMGtv1kcperBC2Bj5kJ-3" value="" style="endArrow=none;html=1;rounded=0;strokeColor=#A7E683;" edge="1" parent="1">
          <mxGeometry width="50" height="50" relative="1" as="geometry">
            <mxPoint x="420" y="220" as="sourcePoint" />
            <mxPoint x="320" y="160" as="targetPoint" />
          </mxGeometry>
        </mxCell>
        <mxCell id="WqMGtv1kcperBC2Bj5kJ-6" value="M" style="text;html=1;align=center;verticalAlign=middle;resizable=0;points=[];autosize=1;strokeColor=none;fillColor=none;" vertex="1" parent="1">
          <mxGeometry x="424" y="104" width="32" height="32" as="geometry" />
        </mxCell>
        <mxCell id="WqMGtv1kcperBC2Bj5kJ-7" value="K" style="text;html=1;align=center;verticalAlign=middle;resizable=0;points=[];autosize=1;strokeColor=none;fillColor=none;" vertex="1" parent="1">
          <mxGeometry x="408" y="192" width="32" height="32" as="geometry" />
        </mxCell>
        <mxCell id="WqMGtv1kcperBC2Bj5kJ-8" value="L" style="text;html=1;align=center;verticalAlign=middle;resizable=0;points=[];autosize=1;strokeColor=none;fillColor=none;" vertex="1" parent="1">
          <mxGeometry x="304" y="136" width="24" height="32" as="geometry" />
        </mxCell>
        <mxCell id="WqMGtv1kcperBC2Bj5kJ-9" value="" style="endArrow=none;dashed=1;html=1;rounded=0;" edge="1" parent="1">
          <mxGeometry width="50" height="50" relative="1" as="geometry">
            <mxPoint x="320" y="160" as="sourcePoint" />
            <mxPoint x="448" y="128" as="targetPoint" />
          </mxGeometry>
        </mxCell>
        <mxCell id="WqMGtv1kcperBC2Bj5kJ-10" value="" style="endArrow=none;dashed=1;html=1;rounded=0;" edge="1" parent="1">
          <mxGeometry width="50" height="50" relative="1" as="geometry">
            <mxPoint x="448" y="128" as="sourcePoint" />
            <mxPoint x="512" y="136" as="targetPoint" />
          </mxGeometry>
        </mxCell>
        <mxCell id="WqMGtv1kcperBC2Bj5kJ-12" value="Jet Boundary&lt;div&gt;&lt;br&gt;&lt;/div&gt;" style="edgeLabel;html=1;align=center;verticalAlign=middle;resizable=0;points=[];" vertex="1" connectable="0" parent="WqMGtv1kcperBC2Bj5kJ-10">
          <mxGeometry x="0.3257" y="-1" relative="1" as="geometry">
            <mxPoint x="14" y="2" as="offset" />
          </mxGeometry>
        </mxCell>
        <mxCell id="WqMGtv1kcperBC2Bj5kJ-11" value="" style="endArrow=none;dashed=1;html=1;rounded=0;" edge="1" parent="1">
          <mxGeometry width="50" height="50" relative="1" as="geometry">
            <mxPoint x="272" y="184" as="sourcePoint" />
            <mxPoint x="320" y="160" as="targetPoint" />
          </mxGeometry>
        </mxCell>
        <mxCell id="WqMGtv1kcperBC2Bj5kJ-13" value="" style="endArrow=classic;html=1;rounded=0;fillColor=#dae8fc;strokeColor=#6c8ebf;" edge="1" parent="1">
          <mxGeometry width="50" height="50" relative="1" as="geometry">
            <mxPoint x="320" y="160" as="sourcePoint" />
            <mxPoint x="384" y="144" as="targetPoint" />
          </mxGeometry>
        </mxCell>
        <mxCell id="WqMGtv1kcperBC2Bj5kJ-14" value="q" style="text;html=1;align=center;verticalAlign=middle;resizable=0;points=[];autosize=1;fontColor=#7EA6E0;" vertex="1" parent="1">
          <mxGeometry x="370" y="117" width="24" height="32" as="geometry" />
        </mxCell>
        <mxCell id="WqMGtv1kcperBC2Bj5kJ-15" value="" style="endArrow=none;dashed=1;html=1;dashPattern=1 3;strokeWidth=2;rounded=0;fillColor=#dae8fc;strokeColor=#6c8ebf;" edge="1" parent="1">
          <mxGeometry width="50" height="50" relative="1" as="geometry">
            <mxPoint x="320" y="160" as="sourcePoint" />
            <mxPoint x="384" y="160" as="targetPoint" />
          </mxGeometry>
        </mxCell>
        <mxCell id="WqMGtv1kcperBC2Bj5kJ-16" value="" style="verticalLabelPosition=bottom;verticalAlign=top;html=1;shape=mxgraph.basic.arc;startAngle=0.16737532973071606;endAngle=0.25342215945177704;fillColor=#dae8fc;strokeColor=#6c8ebf;" vertex="1" parent="1">
          <mxGeometry x="328" y="136" width="42" height="48" as="geometry" />
        </mxCell>
        <mxCell id="WqMGtv1kcperBC2Bj5kJ-18" value="Φ" style="text;html=1;align=center;verticalAlign=middle;resizable=0;points=[];autosize=1;fontColor=#7EA6E0;" vertex="1" parent="1">
          <mxGeometry x="356" y="152" width="32" height="32" as="geometry" />
        </mxCell>
        <mxCell id="WqMGtv1kcperBC2Bj5kJ-19" value="" style="endArrow=none;dashed=1;html=1;dashPattern=1 3;strokeWidth=2;rounded=0;fillColor=#d5e8d4;strokeColor=#82b366;" edge="1" parent="1">
          <mxGeometry width="50" height="50" relative="1" as="geometry">
            <mxPoint x="424" y="176" as="sourcePoint" />
            <mxPoint x="488" y="176" as="targetPoint" />
          </mxGeometry>
        </mxCell>
        <mxCell id="WqMGtv1kcperBC2Bj5kJ-20" value="" style="verticalLabelPosition=bottom;verticalAlign=top;html=1;shape=mxgraph.basic.arc;startAngle=0.10464887038841793;endAngle=0.25342215945177704;fillColor=#d5e8d4;strokeColor=#82b366;" vertex="1" parent="1">
          <mxGeometry x="403" y="152" width="37" height="48" as="geometry" />
        </mxCell>
        <mxCell id="WqMGtv1kcperBC2Bj5kJ-21" value="α" style="text;html=1;align=center;verticalAlign=middle;resizable=0;points=[];autosize=1;fontColor=#4D9900;" vertex="1" parent="1">
          <mxGeometry x="432" y="149" width="24" height="32" as="geometry" />
        </mxCell>
      </root>
    </mxGraphModel>
  </diagram>
</mxfile>
